<?xml version="1.0" ?><svg enable-background="new 0 0 515.91 728.5" height="512" id="Layer_1" version="1.1" viewBox="0 0 512.00003 512" width="512" xml:space="preserve" xmlns="http://www.w3.org/2000/svg" xmlns:cc="http://creativecommons.org/ns#" xmlns:dc="http://purl.org/dc/elements/1.1/" xmlns:inkscape="http://www.inkscape.org/namespaces/inkscape" xmlns:rdf="http://www.w3.org/1999/02/22-rdf-syntax-ns#" xmlns:sodipodi="http://sodipodi.sourceforge.net/DTD/sodipodi-0.dtd" xmlns:svg="http://www.w3.org/2000/svg"><defs id="defs7"/><g id="g6677" transform="translate(136.1786,108.25001)"><path d="m -733.62329,72.267944 c 0,203.804876 -165.21649,369.021366 -369.02141,369.021366 -203.8048,0 -369.0213,-165.21649 -369.0213,-369.021366 0,-203.804874 165.2165,-369.021364 369.0213,-369.021364 203.80492,0 369.02141,165.21649 369.02141,369.021364 z" id="path5046" style="fill:#000000;fill-opacity:1;fill-rule:nonzero;stroke:none" transform="matrix(0.69372682,0,0,0.69372682,884.75558,97.615782)"/><path d="m 57.614919,-24.746225 c -1.7449,0.054 -3.6011,0.6877 -5.7322,2.3689 -5.2203,-2.013 -10.3017,-2.7237 -14.8278,1.3746 -6.9892,-0.9065 -9.2465,0.9737 -10.9673,3.1586 -1.5342,-0.033 -11.4948,-1.5691 -16.0562,5.235101 -11.4628003,-1.3565 -15.0721003,6.7487964 -10.96720032,14.3012964 -2.34109998,3.6244 -4.77309998,7.1874 0.7019,14.0965996 -1.93689998,3.8483 -0.7311,8.0212 3.83120002,13.073 -1.2042,5.4098 1.1654,9.2212 5.4105,12.1957 -0.794,7.403 6.7730003,11.7155 9.0371003,13.2486 0.8694,4.3137 2.6869,8.39481 11.3475,10.64551 1.4284,6.4277 6.6287,7.5416 11.6691,8.8909 -16.6595,9.684 -30.9516,22.405 -30.8546,53.666498 l -2.4274003,4.3578 c -19.1024997,11.6167 -36.2923997,48.9669 -9.4172,79.3155 1.75539998,9.4993 4.6901,16.3129 7.3115,23.86491 3.9206,30.4303 29.5165003,44.6992 36.2652003,46.3843 9.8897,7.5329 20.4324,14.6768 34.6858,19.6826 13.4363,13.8577 27.975301,19.1352 43.196611,19.1358 15.2213,5e-4 29.7603,-5.2781 43.1966,-19.1358 14.2534,-5.0058 24.7963,-12.1497 34.6858,-19.6826 6.7487,-1.6851 32.3446,-15.954 36.2652,-46.3843 2.6213,-7.55201 5.5559,-14.36561 7.3116,-23.86491 26.875,-30.3486 9.6851,-67.6988 -9.4174,-79.3155 l -2.4273,-4.3578 c 0.097,-31.261498 -14.1952,-43.982498 -30.8546,-53.666498 5.0402,-1.3493 10.2407,-2.4632 11.6692,-8.8909 8.6605,-2.2507 10.478,-6.33181 11.3474,-10.64551 2.2641,-1.5331 9.8312,-5.8456 9.0371,-13.2486 4.245,-2.9745 6.6146,-6.7859 5.4105,-12.1957 4.5623,-5.0518 5.7681,-9.2247 3.8313,-13.073 5.475,-6.9091996 3.043,-10.4721996 0.7019,-14.0965996 4.1047,-7.5525 0.4956,-15.6577964 -10.9674,-14.3012964 -4.5612,-6.804201 -14.5218,-5.267901 -16.056,-5.235101 -1.7209,-2.1849 -3.9781,-4.0651 -10.9674,-3.1586 -4.5262,-4.0983 -9.6075,-3.3876 -14.8278,-1.3746 -2.1311,-1.6812 -3.9875,-2.3146 -5.7322,-2.3689 -3.3299,-0.1033 -6.1665,1.9224 -9.2418,2.8954 -7.5097,-2.4525 -9.2108,0.884 -12.8975,2.2519 -8.1847,-1.7299 -10.6654,2.0505 -14.5939,6.024801 l -4.5916,-0.088 c -12.3427,7.2734964 -18.4432,22.0677964 -20.8817,22.0677964 -2.43851,0 -8.53901,-14.7943 -20.881711,-22.0677964 l -4.5916,0.088 c -3.9286,-3.974301 -6.4092,-7.754701 -14.5939,-6.024801 -3.6867,-1.3679 -5.3878,-4.7044 -12.8975,-2.2519 -3.0754,-0.973 -5.912,-2.9987 -9.2418,-2.8954 z m 0.4386,8.7446 c 6.269,2.322701 9.5276,5.317501 12.9269,8.2766974 1.1535,-1.555496 2.9043,-2.7099964 0.7603,-6.4634964 4.4519,2.5656 7.8138,5.5914004 10.2947,8.9785964 2.7531,-1.7535 1.6234,-4.136396 1.6378,-6.3462964 4.6265,3.7628964 7.5787,7.7580964 11.172,11.66909645 0.724,-0.5278 1.3415,-2.32010005 1.901,-5.14730005 11.036401,10.7066 26.627411,37.6808996 4.006701,48.3730996 -19.240701,-15.8684 -42.213801,-27.4047 -67.675501,-36.0603996 32.7337,16.8783996 51.7782,30.5138996 62.2066,42.1435996 -5.3426,21.41061 -33.2111,22.41831 -43.4013,21.81761 2.087,-0.9712 3.8289,-2.1612 4.4454,-3.9482 -2.557,-1.818 -11.6271,-0.1878 -17.9572,-3.7435 2.4315,-0.5038 3.5721,-0.9834 4.7086,-2.77841 -5.9793,-1.9072 -12.414,-3.5671 -16.2023,-6.7267 2.0445,0.025 3.9398,0.4762 6.6097,-1.3744 -5.3561,-2.8874 -11.06,-5.1816 -15.5005,-9.5928 2.7694,-0.068 5.7415,-0.034 6.6097,-1.0528 -4.9026,-3.0371 -9.0351,-6.4249 -12.4589,-10.1193 3.8754,0.4678 5.4971,0.091 6.4341,-0.585 -3.7055,-3.7955 -8.3803,-6.9928 -10.6163003,-11.6691 2.8774003,0.9911 5.5014003,1.3422 7.3993003,-0.117 -1.2594,-2.8406 -6.6621003,-4.5041 -9.7683003,-11.1427996 3.0292,0.2937 6.2596003,0.661 6.9021003,0 -1.406,-5.7283 -3.8047003,-8.94579995 -6.1709003,-12.2834 6.4831003,-0.096 16.2963003,0.022 15.8514003,-0.5263 l -4.0067,-4.094396 c 6.3326,-1.7051004 12.8145,0.285496 17.5184,1.754696 2.1122,-1.666796 -0.055,-3.7851964 -2.6321,-5.9369964 5.3817,0.7185 10.2568,1.9505 14.6522,3.6557004 2.3487,-2.1204004 -1.5481,-4.2257004 -3.4218,-6.3464014 8.3144,1.578001 11.8542,3.776301 15.3543,5.9955014 2.5407,-2.4346004 0.1346,-4.4896004 -1.5794,-6.6096014 z m 123.535711,0 c -1.714,2.120001 -4.1199,4.175001 -1.5793,6.6096014 3.5001,-2.2192004 7.0399,-4.4175004 15.3542,-5.9955014 -1.8735,2.120701 -5.7704,4.226001 -3.4218,6.3464014 4.3955,-1.7052004 9.2705,-2.9372004 14.6523,-3.6557004 -2.5769,2.1518 -4.7443,4.2702004 -2.632,5.9369964 4.7039,-1.4692 11.1857,-3.4597964 17.5184,-1.754696 l -4.0068,4.094396 c -0.4449,0.5478 9.3682,0.4308 15.8515,0.5263 -2.3664,3.33760005 -4.765,6.5551 -6.171,12.2834 0.6425,0.661 3.8729,0.2937 6.9021,0 -3.1062,6.6386996 -8.5089,8.3021996 -9.7682,11.1427996 1.8978,1.4592 4.5218,1.1081 7.3993,0.117 -2.2362,4.6763 -6.9108,7.8736 -10.6164,11.6691 0.937,0.6759 2.5587,1.0528 6.4341,0.585 -3.4237,3.6944 -7.5563,7.0822 -12.4588,10.1193 0.8681,1.0182 3.8403,0.9845 6.6096,1.0528 -4.4404,4.4112 -10.1443,6.7054 -15.5004,9.5928 2.6699,1.8506 4.5652,1.3997 6.6096,1.3744 -3.7883,3.1596 -10.223,4.8195 -16.2023,6.7267 1.1365,1.79501 2.2772,2.27461 4.7086,2.77841 -6.3301,3.5557 -15.4003,1.9255 -17.9572,3.7435 0.6165,1.787 2.3584,2.977 4.4454,3.9482 -10.1901,0.6007 -38.0587,-0.407 -43.4013,-21.81761 10.4283,-11.6297 29.4729,-25.2652 62.2066,-42.1435996 -25.4617,8.6556996 -48.4349,20.1919996 -67.6755,36.0603996 -22.62081,-10.6922 -7.0299,-37.6664996 4.0067,-48.3730996 0.5594,2.8272 1.177,4.61950005 1.901,5.14730005 3.5934,-3.91100005 6.5455,-7.90620005 11.172,-11.66909645 0.014,2.2099004 -1.1154,4.5927964 1.6378,6.3462964 2.481,-3.387196 5.8428,-6.4129964 10.2947,-8.9785964 -2.1441,3.7535 -0.3933,4.9080004 0.7603,6.4634964 3.3993,-2.9591964 6.6578,-5.9539964 12.9268,-8.2766974 z m -61.7678,88.571407 c 19.5298,0 35.8155,13.2701 35.8558,21.0723 0.051,9.787698 -14.2937,19.838698 -35.5926,20.092198 -0.089,4e-4 -0.1743,-4e-4 -0.2632,0 -0.089,-4e-4 -0.17461,4e-4 -0.26321,0 -21.299001,-0.2535 -35.642901,-10.3045 -35.592601,-20.092198 0.041,-7.8022 16.326001,-21.0723 35.855811,-21.0723 z m -54.807211,6.4201 c 0.4,-0.01 0.7969,-0.01 1.199,0 3.1642,0.016 6.4259,0.2887 9.739,0.8481 11.1584,1.875 -53.4892,58.331398 -54.4855,45.740898 -0.8917,-28.791198 18.3737,-46.186698 43.5475,-46.588998 z m 108.415411,0 c 0.4021,-0.01 0.799,-0.01 1.199,0 25.1738,0.4023 44.4393,17.7978 43.5475,46.588998 -0.9963,12.5905 -65.644,-43.865898 -54.4855,-45.740898 3.313,-0.5594 6.5748,-0.8313 9.739,-0.8481 z M 75.308819,114.93338 c 3.7239,-0.028 7.4969,0.5209 11.172,1.7547 19.600801,6.5795 29.506801,29.5031 22.139401,51.1808 -7.3676,21.6774 -29.240201,33.9245 -48.841101,27.345 -19.6009,-6.5796 -29.5067,-29.5032 -22.1393,-51.1807 5.9861,-17.613 21.5329,-28.9798 37.669,-29.0998 z m 89.025211,0 c 16.1362,0.12 31.6829,11.4868 37.6691,29.0998 7.3673,21.6775 -2.5385,44.6011 -22.1394,51.1807 -19.6008,6.5795 -41.4735,-5.6676 -48.8411,-27.345 -7.3674,-21.6777 2.5386,-44.6013 22.1394,-51.1808 3.6751,-1.2338 7.4482,-1.7819 11.172,-1.7547 z m -146.347611,24.1865 c 15.2735,0.2244 3.9218,72.6233 -9.9145003,66.4764 -15.7076,-12.6333 -20.7572997,-49.6129 8.3645003,-66.2424 0.4113,-0.1103 0.7902,-0.182 1.1698,-0.2047 0.1237,-0.01 0.2599,-0.031 0.3802,-0.029 z m 203.670011,0 c 0.1203,0 0.2564,0.02 0.3802,0.029 0.3797,0.022 0.7586,0.095 1.1698,0.2049 29.1217,16.6294 24.0719,53.609 8.3645,66.2424 -13.8364,6.1468 -25.188,-66.2521 -9.9145,-66.4764 z m -101.83511,50.0631 c 10.29431,0 19.93841,3.7309 26.93581,10.067 7.464,6.7583 11.814,16.383 11.7569,26.0289 0,9.47111 -4.2311,18.86431 -11.4937,25.56131 -7.137,6.5809 -17.109,10.4837 -27.1989,10.6163 -10.09001,-0.1326 -20.061811,-4.0354 -27.198911,-10.6163 -7.2626,-6.697 -11.4937,-16.0902 -11.4937,-25.56131 -0.057,-9.6459 4.2928,-19.2706 11.7569,-26.0289 6.9973,-6.3361 16.641301,-10.067 26.935601,-10.067 z m -90.077901,18.9285 c 10.1122,-0.2079 22.5486,7.7753 32.6093,19.4487 11.2209,13.51831 16.3246,37.27741 6.9607,44.27851 -8.8597,5.3449 -30.391,3.1331 -45.6825,-18.8344 -10.3131,-18.4335 -8.9664,-37.18871 -1.7255,-42.69941 2.3686,-1.4422 5.0066,-2.1358 7.838,-2.1934 z m 179.190911,0 c 0.3205,-0.01 0.6491,-0.01 0.9652,0 2.8314,0.057 5.4693,0.7512 7.838,2.1934 7.2409,5.5107 8.5875,24.26591 -1.7255,42.69941 -15.2918,21.9675 -36.8231,24.1793 -45.6826,18.8344 -9.3639,-7.0011 -4.2605,-30.7602 6.9607,-44.27851 9.7462,-11.3086 21.7117,-19.1584 31.6442,-19.4487 z m -89.1129,64.75091 c 15.6671,-0.1783 38.9502,6.4164 38.6634,14.8279 0.2501,5.8238 -18.8546,22.6293 -38.3418,21.7883 -0.1079,0 -0.2138,-8e-4 -0.3216,0 -0.10791,-8e-4 -0.21391,0 -0.32161,0 -19.4873,0.841 -38.591801,-15.9645 -38.341801,-21.7883 -0.2868,-8.4115 22.996301,-15.0062 38.663411,-14.8279 z" id="path5175-4" style="fill:#ffffff;fill-opacity:1"/></g></svg>